<?xml version="1.0" encoding="UTF-8" standalone="no"?><!DOCTYPE svg PUBLIC "-//W3C//DTD SVG 1.1//EN" "http://www.w3.org/Graphics/SVG/1.1/DTD/svg11.dtd"><svg width="100%" height="100%" viewBox="0 0 11 11" version="1.1" xmlns="http://www.w3.org/2000/svg" xmlns:xlink="http://www.w3.org/1999/xlink" xml:space="preserve" xmlns:serif="http://www.serif.com/" style="fill-rule:evenodd;clip-rule:evenodd;stroke-linejoin:round;stroke-miterlimit:1.41421;"><path d="M10.287,0l-9.686,0c-0.332,0 -0.601,0.269 -0.601,0.601l0,9.686c0,0.332 0.269,0.6 0.601,0.6l5.214,0l0,-4.216l-1.42,0l0,-1.642l1.42,0l0,-1.214c0,-1.406 0.859,-2.171 2.113,-2.171c0.601,0 1.118,0.044 1.269,0.064l0,1.47l-0.872,0c-0.68,0 -0.813,0.327 -0.813,0.804l0,1.048l1.626,0l-0.211,1.647l-1.415,0l0,4.21l2.774,0c0.333,0 0.601,-0.268 0.601,-0.6l0,-9.686c0,-0.332 -0.268,-0.601 -0.6,-0.601" style="fill-rule:nonzero;"/></svg>