<?xml version="1.0" encoding="UTF-8" standalone="no"?><!DOCTYPE svg PUBLIC "-//W3C//DTD SVG 1.1//EN" "http://www.w3.org/Graphics/SVG/1.1/DTD/svg11.dtd"><svg width="100%" height="100%" viewBox="0 0 20 20" version="1.1" xmlns="http://www.w3.org/2000/svg" xmlns:xlink="http://www.w3.org/1999/xlink" xml:space="preserve" xmlns:serif="http://www.serif.com/" style="fill-rule:evenodd;clip-rule:evenodd;stroke-linejoin:round;stroke-miterlimit:1.41421;"><g id="Layer_1_107_"><path d="M19.006,2.97c-0.191,-0.219 -0.466,-0.345 -0.756,-0.345l-13.819,0l-0.195,-1.164c-0.08,-0.482 -0.497,-0.836 -0.986,-0.836l-2.25,0c-0.553,0 -1,0.447 -1,1c0,0.553 0.447,1 1,1l1.403,0l1.86,11.164c0.008,0.045 0.031,0.082 0.045,0.124c0.016,0.053 0.029,0.103 0.054,0.151c0.032,0.066 0.075,0.122 0.12,0.179c0.031,0.039 0.059,0.078 0.095,0.112c0.058,0.054 0.125,0.092 0.193,0.13c0.038,0.021 0.071,0.049 0.112,0.065c0.116,0.047 0.238,0.075 0.367,0.075l11.001,0c0.553,0 1,-0.447 1,-1c0,-0.553 -0.447,-1 -1,-1l-10.153,0l-0.166,-1l11.319,0c0.498,0 0.92,-0.366 0.99,-0.858l1,-7c0.041,-0.288 -0.045,-0.579 -0.234,-0.797Zm-1.909,1.655l-0.285,2l-3.562,0l0,-2l3.847,0Zm-4.847,0l0,2l-3,0l0,-2l3,0Zm0,3l0,2l-3,0l0,-2l3,0Zm-4,-3l0,2l-3,0c-0.053,0 -0.101,0.015 -0.148,0.03l-0.338,-2.03l3.486,0Zm-2.986,3l2.986,0l0,2l-2.653,0l-0.333,-2Zm7.986,2l0,-2l3.418,0l-0.285,2l-3.133,0Z" style="fill:#030104;fill-rule:nonzero;"/><circle cx="6.75" cy="17.125" r="1.5" style="fill:#030104;"/><circle cx="15.75" cy="17.125" r="1.5" style="fill:#030104;"/></g></svg>