<?xml version="1.0" encoding="UTF-8" standalone="no"?><!DOCTYPE svg PUBLIC "-//W3C//DTD SVG 1.1//EN" "http://www.w3.org/Graphics/SVG/1.1/DTD/svg11.dtd"><svg width="100%" height="100%" viewBox="0 0 122 122" version="1.1" xmlns="http://www.w3.org/2000/svg" xmlns:xlink="http://www.w3.org/1999/xlink" xml:space="preserve" xmlns:serif="http://www.serif.com/" style="fill-rule:evenodd;clip-rule:evenodd;stroke-linecap:round;stroke-linejoin:round;stroke-miterlimit:1.5;"><g><circle cx="60.941" cy="60.941" r="60.566" style="fill-opacity:0.28;stroke:#dbc078;stroke-width:0.75px;"/><g><path d="M76.685,57.233c-0.004,-0.036 -0.011,-0.072 -0.022,-0.106c-0.007,-0.031 -0.017,-0.062 -0.03,-0.091c-0.015,-0.028 -0.032,-0.055 -0.052,-0.08c-0.021,-0.03 -0.044,-0.057 -0.07,-0.081c-0.009,-0.008 -0.012,-0.018 -0.021,-0.025l-5.049,-3.922l0,-4.064c0,-0.87 -0.706,-1.575 -1.575,-1.575l-5.69,0l-2.278,-1.769c-0.563,-0.439 -1.352,-0.439 -1.915,0l-2.279,1.769l-5.689,0c-0.87,0 -1.576,0.705 -1.576,1.575l0,4.065l-5.047,3.921c-0.009,0.007 -0.013,0.017 -0.021,0.025c-0.026,0.024 -0.05,0.051 -0.07,0.081c-0.02,0.025 -0.038,0.052 -0.052,0.08c-0.013,0.029 -0.023,0.06 -0.03,0.091c-0.011,0.034 -0.018,0.069 -0.022,0.105c0,0.011 -0.006,0.02 -0.006,0.031l0,17.853c0.001,0.334 0.109,0.658 0.308,0.926c0.003,0.005 0.004,0.011 0.007,0.015c0.004,0.004 0.012,0.009 0.017,0.015c0.295,0.388 0.754,0.617 1.241,0.619l28.352,0c0.489,-0.002 0.95,-0.232 1.245,-0.622c0.004,-0.005 0.011,-0.007 0.014,-0.012c0.004,-0.005 0.004,-0.01 0.008,-0.015c0.199,-0.268 0.307,-0.592 0.308,-0.926l0,-17.851c0,-0.011 -0.006,-0.021 -0.006,-0.032Zm-16.06,-10.884c0.183,-0.146 0.443,-0.146 0.626,0l1.212,0.94l-3.046,0l1.208,-0.94Zm-13.728,29.292l13.728,-10.664c0.184,-0.146 0.443,-0.146 0.626,0l13.732,10.664l-28.086,0Zm28.744,-0.819l-13.743,-10.674c-0.563,-0.438 -1.352,-0.438 -1.915,0l-13.744,10.674l0,-16.758l8.604,6.681c0.229,0.178 0.559,0.136 0.737,-0.093c0.178,-0.229 0.136,-0.559 -0.093,-0.737l-8.741,-6.787l3.694,-2.87l0,4.057c0,0.29 0.235,0.525 0.525,0.525c0.29,0 0.525,-0.235 0.525,-0.525l0,-9.451c0,-0.29 0.235,-0.525 0.525,-0.525l17.85,0c0.29,0 0.525,0.235 0.525,0.525l0,9.451c0,0.29 0.235,0.525 0.525,0.525c0.29,0 0.525,-0.235 0.525,-0.525l0,-4.057l3.694,2.87l-8.756,6.799c-0.15,0.114 -0.228,0.301 -0.203,0.488c0.025,0.187 0.149,0.347 0.324,0.418c0.175,0.07 0.375,0.041 0.523,-0.076l8.619,-6.693l0,16.758l0,0Z" style="fill:#dbc078;fill-rule:nonzero;"/><path d="M67.24,57.79l0,-2.1c0,-3.48 -2.82,-6.301 -6.3,-6.301c-3.48,0 -6.3,2.821 -6.3,6.301c0,3.479 2.82,6.3 6.3,6.3c0.29,0 0.525,-0.235 0.525,-0.525c0,-0.29 -0.235,-0.525 -0.525,-0.525c-2.9,0 -5.25,-2.351 -5.25,-5.25c0,-2.9 2.35,-5.251 5.25,-5.251c2.9,0 5.25,2.351 5.25,5.251l0,2.1c0,0.58 -0.47,1.05 -1.05,1.05c-0.58,0 -1.05,-0.47 -1.05,-1.05l0,-2.1c0,-0.29 -0.235,-0.525 -0.525,-0.525c-0.29,0 -0.525,0.235 -0.525,0.525c0,1.159 -0.94,2.1 -2.1,2.1c-1.16,0 -2.1,-0.941 -2.1,-2.1c0,-1.16 0.94,-2.1 2.1,-2.1c0.29,0 0.525,-0.235 0.525,-0.525c0,-0.29 -0.235,-0.525 -0.525,-0.525c-1.41,-0.004 -2.65,0.93 -3.037,2.286c-0.386,1.356 0.176,2.804 1.375,3.544c1.2,0.741 2.746,0.594 3.785,-0.359c0.114,1.11 1.079,1.936 2.194,1.877c1.114,-0.059 1.987,-0.982 1.983,-2.098Z" style="fill:#dbc078;fill-rule:nonzero;"/></g></g></svg>