<?xml version="1.0" encoding="UTF-8" standalone="no"?><!DOCTYPE svg PUBLIC "-//W3C//DTD SVG 1.1//EN" "http://www.w3.org/Graphics/SVG/1.1/DTD/svg11.dtd"><svg width="100%" height="100%" viewBox="0 0 122 122" version="1.1" xmlns="http://www.w3.org/2000/svg" xmlns:xlink="http://www.w3.org/1999/xlink" xml:space="preserve" xmlns:serif="http://www.serif.com/" style="fill-rule:evenodd;clip-rule:evenodd;stroke-linecap:round;stroke-linejoin:round;stroke-miterlimit:1.5;"><g><circle cx="60.941" cy="60.941" r="60.566" style="fill-opacity:0.28;stroke:#dbc078;stroke-width:0.75px;"/><g><path d="M55.525,66.753c1.298,1.829 2.593,3.465 3.451,4.519c0.125,0.153 0.242,0.295 0.356,0.432l-2.591,0c-0.29,0 -0.525,0.235 -0.525,0.525c0,0.29 0.235,0.525 0.525,0.525l8.4,0c0.29,0 0.525,-0.235 0.525,-0.525c0,-0.29 -0.235,-0.525 -0.525,-0.525l-2.59,0c0.113,-0.137 0.23,-0.279 0.356,-0.432c0.858,-1.05 2.152,-2.69 3.45,-4.519c1.288,-1.778 2.447,-3.646 3.468,-5.589c1.072,-2.106 1.616,-3.853 1.616,-5.195c0.004,-2.789 -1.103,-5.464 -3.075,-7.435c-0.131,-0.136 -0.327,-0.191 -0.51,-0.143c-0.184,0.047 -0.327,0.191 -0.375,0.374c-0.049,0.184 0.006,0.379 0.142,0.511c1.775,1.774 2.771,4.183 2.768,6.693c0,1.175 -0.505,2.762 -1.501,4.718c-0.999,1.898 -2.131,3.723 -3.39,5.46c-1.28,1.805 -2.559,3.423 -3.407,4.462c-0.282,0.346 -0.535,0.651 -0.752,0.91c-0.101,0.115 -0.247,0.181 -0.4,0.181c-0.153,0 -0.299,-0.066 -0.4,-0.181c-0.216,-0.259 -0.47,-0.564 -0.752,-0.91c-0.847,-1.039 -2.127,-2.656 -3.407,-4.462c-1.258,-1.737 -2.391,-3.562 -3.389,-5.46c-0.998,-1.956 -1.502,-3.543 -1.502,-4.718c0,-3.803 2.274,-7.237 5.775,-8.721c2.353,-0.987 5.003,-0.987 7.356,0c0.172,0.073 0.371,0.049 0.521,-0.064c0.15,-0.113 0.228,-0.298 0.205,-0.484c-0.023,-0.186 -0.144,-0.346 -0.316,-0.419c-5.347,-2.255 -11.509,0.25 -13.765,5.595c-0.548,1.295 -0.828,2.687 -0.826,4.093c0,1.342 0.544,3.089 1.616,5.197c1.022,1.943 2.181,3.81 3.468,5.587Z" style="fill:#dbc078;fill-rule:nonzero;"/><path d="M60.941,51.229c0.29,0 0.525,-0.235 0.525,-0.525c0,-0.289 -0.235,-0.525 -0.525,-0.525c-2.505,0 -4.66,1.77 -5.149,4.226c-0.489,2.457 0.826,4.916 3.14,5.875c2.314,0.958 4.983,0.149 6.374,-1.934c1.392,-2.082 1.118,-4.858 -0.653,-6.629c-0.131,-0.136 -0.327,-0.191 -0.51,-0.143c-0.184,0.048 -0.327,0.191 -0.375,0.375c-0.048,0.184 0.007,0.379 0.143,0.511c1.417,1.416 1.636,3.637 0.522,5.303c-1.113,1.666 -3.248,2.314 -5.099,1.547c-1.851,-0.767 -2.903,-2.735 -2.512,-4.7c0.391,-1.965 2.115,-3.38 4.119,-3.381Z" style="fill:#dbc078;fill-rule:nonzero;"/><path d="M76.493,74.104l-3.229,-5.775c-0.291,-0.513 -0.838,-0.828 -1.428,-0.825l-3.742,0c-0.29,0 -0.525,0.236 -0.525,0.525c0,0.29 0.235,0.525 0.525,0.525l3.742,0c0.21,-0.004 0.406,0.106 0.513,0.287l3.228,5.775c0.088,0.15 0.086,0.337 -0.005,0.485c-0.107,0.177 -0.301,0.284 -0.508,0.279l-28.245,0c-0.207,0.004 -0.401,-0.102 -0.508,-0.279c-0.091,-0.148 -0.093,-0.335 -0.005,-0.485l3.228,-5.775c0.106,-0.181 0.302,-0.291 0.512,-0.287l3.742,0c0.29,0 0.525,-0.235 0.525,-0.525c0,-0.289 -0.235,-0.525 -0.525,-0.525l-3.742,0c-0.59,-0.003 -1.137,0.312 -1.429,0.825l-3.229,5.775c-0.269,0.476 -0.262,1.059 0.017,1.529c0.294,0.5 0.833,0.804 1.414,0.797l28.245,0c0.58,0.007 1.119,-0.297 1.413,-0.797c0.279,-0.47 0.285,-1.053 0.016,-1.529Z" style="fill:#dbc078;fill-rule:nonzero;"/><path d="M70.916,70.13l-2.1,0c-0.103,0 -0.205,0.03 -0.291,0.088l-1.575,1.05c-0.241,0.161 -0.307,0.487 -0.146,0.728c0.161,0.241 0.487,0.306 0.729,0.145l1.441,-0.961l1.942,0c0.29,0 0.525,-0.235 0.525,-0.525c0,-0.29 -0.235,-0.525 -0.525,-0.525Z" style="fill:#dbc078;fill-rule:nonzero;"/><path d="M67.766,73.805c0,0.289 0.235,0.524 0.525,0.524l4.2,0c0.29,0 0.525,-0.235 0.525,-0.524c0,-0.29 -0.235,-0.525 -0.525,-0.525l-4.2,0c-0.29,0 -0.525,0.235 -0.525,0.525Z" style="fill:#dbc078;fill-rule:nonzero;"/><path d="M54.641,72.23c0.232,0 0.436,-0.152 0.503,-0.373c0.067,-0.222 -0.018,-0.461 -0.211,-0.589l-1.575,-1.05c-0.086,-0.058 -0.188,-0.088 -0.292,-0.089l-2.1,0c-0.29,0 -0.525,0.236 -0.525,0.525c0,0.29 0.235,0.525 0.525,0.525l1.943,0l1.442,0.962c0.086,0.058 0.187,0.088 0.29,0.089Z" style="fill:#dbc078;fill-rule:nonzero;"/><path d="M49.391,73.28c-0.29,0 -0.525,0.235 -0.525,0.525c0,0.289 0.235,0.524 0.525,0.524l4.2,0c0.29,0 0.525,-0.235 0.525,-0.524c0,-0.29 -0.235,-0.525 -0.525,-0.525l-4.2,0Z" style="fill:#dbc078;fill-rule:nonzero;"/></g></g></svg>