<?xml version="1.0" encoding="UTF-8" standalone="no"?><!DOCTYPE svg PUBLIC "-//W3C//DTD SVG 1.1//EN" "http://www.w3.org/Graphics/SVG/1.1/DTD/svg11.dtd"><svg width="100%" height="100%" viewBox="0 0 70 12" version="1.1" xmlns="http://www.w3.org/2000/svg" xmlns:xlink="http://www.w3.org/1999/xlink" xml:space="preserve" xmlns:serif="http://www.serif.com/" style="fill-rule:evenodd;clip-rule:evenodd;stroke-linejoin:round;stroke-miterlimit:1.41421;"><rect id="Artboard1" x="0" y="0" width="69.695" height="11.12" style="fill:none;"/><path d="M5.56,0l1.503,3.491l3.784,0.351l-2.855,2.508l0.836,3.708l-3.268,-1.941l-3.268,1.941l0.835,-3.708l-2.855,-2.508l3.785,-0.351l1.503,-3.491Z" style="fill:#ce7c02;"/><path d="M19.977,0l1.504,3.491l3.784,0.351l-2.855,2.508l0.835,3.708l-3.268,-1.941l-3.268,1.941l0.836,-3.708l-2.855,-2.508l3.784,-0.351l1.503,-3.491Z" style="fill:#ce7c02;"/><path d="M34.395,0l1.503,3.491l3.785,0.351l-2.856,2.508l0.836,3.708l-3.268,-1.941l-3.268,1.941l0.836,-3.708l-2.856,-2.508l3.785,-0.351l1.503,-3.491Z"/><path d="M48.813,0l1.503,3.491l3.784,0.351l-2.855,2.508l0.836,3.708l-3.268,-1.941l-3.268,1.941l0.835,-3.708l-2.855,-2.508l3.784,-0.351l1.504,-3.491Z"/><path d="M63.23,0l1.503,3.491l3.785,0.351l-2.856,2.508l0.836,3.708l-3.268,-1.941l-3.268,1.941l0.836,-3.708l-2.856,-2.508l3.785,-0.351l1.503,-3.491Z"/></svg>