<?xml version="1.0" encoding="UTF-8" standalone="no"?><!DOCTYPE svg PUBLIC "-//W3C//DTD SVG 1.1//EN" "http://www.w3.org/Graphics/SVG/1.1/DTD/svg11.dtd"><svg width="100%" height="100%" viewBox="0 0 122 122" version="1.1" xmlns="http://www.w3.org/2000/svg" xmlns:xlink="http://www.w3.org/1999/xlink" xml:space="preserve" xmlns:serif="http://www.serif.com/" style="fill-rule:evenodd;clip-rule:evenodd;stroke-linecap:round;stroke-linejoin:round;stroke-miterlimit:1.5;"><g><circle cx="60.941" cy="60.941" r="60.566" style="fill-opacity:0.28;stroke:#dbc078;stroke-width:0.75px;"/><g><path d="M55.691,70.916c-1.158,0 -2.1,0.942 -2.1,2.1c0,1.158 0.942,2.1 2.1,2.1c1.158,0 2.1,-0.942 2.1,-2.1c0,-1.158 -0.942,-2.1 -2.1,-2.1Zm0,3.15c-0.579,0 -1.05,-0.471 -1.05,-1.05c0,-0.579 0.471,-1.05 1.05,-1.05c0.579,0 1.05,0.471 1.05,1.05c0,0.579 -0.471,1.05 -1.05,1.05Z" style="fill:#dbc078;fill-rule:nonzero;"/><path d="M54.116,47.816l2.1,0c0.29,0 0.525,-0.235 0.525,-0.525c0,-0.29 -0.235,-0.525 -0.525,-0.525l-2.1,0c-0.29,0 -0.525,0.235 -0.525,0.525c0,0.29 0.235,0.525 0.525,0.525Z" style="fill:#dbc078;fill-rule:nonzero;"/><path d="M57.791,47.816l0.525,0c0.29,0 0.525,-0.235 0.525,-0.525c0,-0.29 -0.235,-0.525 -0.525,-0.525l-0.525,0c-0.29,0 -0.525,0.235 -0.525,0.525c0,0.29 0.235,0.525 0.525,0.525Z" style="fill:#dbc078;fill-rule:nonzero;"/><path d="M74.591,51.491l-9.45,0l0,-3.987c0,-1.275 -1.038,-2.313 -2.313,-2.313l-13.224,0c-1.276,0 -2.313,1.038 -2.313,2.313l0,26.874c0,1.275 1.037,2.313 2.313,2.313l13.224,0c1.275,0 2.313,-1.038 2.313,-2.313l0,-11.862l9.45,0l0,-11.025Zm-24.987,-5.25l13.224,0c0.696,0 1.263,0.566 1.263,1.263l0,0.837l-15.75,0l0,-0.837c0,-0.697 0.566,-1.263 1.263,-1.263Zm13.224,29.4l-13.224,0c-0.697,0 -1.263,-0.567 -1.263,-1.263l0,-3.987l15.75,0l0,3.987c0,0.696 -0.567,1.263 -1.263,1.263Zm1.263,-6.3l-15.75,0l0,-19.95l15.75,0l0,2.1l-9.45,0l0,11.025l2.1,0l0,3.675l4.9,-3.675l2.45,0l0,6.825Zm9.45,-7.875l-8.4,0l-3.85,0l-3.5,2.625l0,-2.625l-2.1,0l0,-8.925l17.85,0l0,8.925Z" style="fill:#dbc078;fill-rule:nonzero;"/><path d="M58.316,56.216l5.25,0c0.29,0 0.525,-0.235 0.525,-0.525c0,-0.29 -0.235,-0.525 -0.525,-0.525l-5.25,0c-0.29,0 -0.525,0.235 -0.525,0.525c0,0.29 0.235,0.525 0.525,0.525Z" style="fill:#dbc078;fill-rule:nonzero;"/><path d="M57.791,58.316c0,0.29 0.235,0.525 0.525,0.525l12.6,0c0.29,0 0.525,-0.235 0.525,-0.525c0,-0.29 -0.235,-0.525 -0.525,-0.525l-12.6,0c-0.29,0 -0.525,0.235 -0.525,0.525Z" style="fill:#dbc078;fill-rule:nonzero;"/></g></g></svg>