<?xml version="1.0" encoding="UTF-8" standalone="no"?><!DOCTYPE svg PUBLIC "-//W3C//DTD SVG 1.1//EN" "http://www.w3.org/Graphics/SVG/1.1/DTD/svg11.dtd"><svg width="100%" height="100%" viewBox="0 0 12 12" version="1.1" xmlns="http://www.w3.org/2000/svg" xmlns:xlink="http://www.w3.org/1999/xlink" xml:space="preserve" xmlns:serif="http://www.serif.com/" style="fill-rule:evenodd;clip-rule:evenodd;stroke-linejoin:round;stroke-miterlimit:1.41421;"><g><path d="M5.625,0c-1.528,0 -1.719,0.007 -2.319,0.034c-0.599,0.028 -1.007,0.122 -1.365,0.261c-0.37,0.144 -0.684,0.336 -0.997,0.649c-0.313,0.313 -0.506,0.626 -0.649,0.997c-0.139,0.358 -0.234,0.766 -0.261,1.365c-0.028,0.6 -0.034,0.791 -0.034,2.319c0,1.528 0.007,1.719 0.034,2.319c0.028,0.598 0.122,1.007 0.261,1.365c0.144,0.37 0.336,0.684 0.649,0.997c0.313,0.312 0.626,0.506 0.997,0.649c0.359,0.138 0.766,0.234 1.365,0.261c0.6,0.028 0.791,0.034 2.319,0.034c1.528,0 1.719,-0.007 2.319,-0.034c0.598,-0.028 1.007,-0.123 1.365,-0.261c0.37,-0.144 0.684,-0.337 0.997,-0.649c0.312,-0.313 0.506,-0.626 0.649,-0.997c0.138,-0.358 0.234,-0.767 0.261,-1.365c0.028,-0.6 0.034,-0.791 0.034,-2.319c0,-1.528 -0.007,-1.719 -0.034,-2.319c-0.028,-0.599 -0.123,-1.007 -0.261,-1.365c-0.144,-0.37 -0.337,-0.684 -0.649,-0.997c-0.313,-0.313 -0.626,-0.506 -0.997,-0.649c-0.358,-0.139 -0.766,-0.234 -1.365,-0.261c-0.6,-0.028 -0.791,-0.034 -2.319,-0.034Zm0,1.013c1.501,0 1.68,0.007 2.273,0.033c0.549,0.026 0.847,0.117 1.044,0.194c0.264,0.102 0.45,0.224 0.648,0.42c0.197,0.197 0.318,0.384 0.42,0.648c0.077,0.197 0.169,0.495 0.194,1.044c0.026,0.593 0.033,0.771 0.033,2.273c0,1.502 -0.007,1.68 -0.035,2.273c-0.029,0.549 -0.12,0.847 -0.197,1.044c-0.105,0.264 -0.225,0.45 -0.422,0.648c-0.196,0.197 -0.386,0.318 -0.647,0.42c-0.197,0.077 -0.499,0.169 -1.047,0.194c-0.598,0.026 -0.773,0.033 -2.278,0.033c-1.505,0 -1.681,-0.007 -2.278,-0.035c-0.549,-0.029 -0.851,-0.12 -1.048,-0.197c-0.267,-0.105 -0.45,-0.225 -0.646,-0.422c-0.198,-0.196 -0.324,-0.386 -0.422,-0.647c-0.077,-0.197 -0.168,-0.499 -0.197,-1.047c-0.021,-0.591 -0.029,-0.773 -0.029,-2.271c0,-1.498 0.008,-1.681 0.029,-2.279c0.029,-0.548 0.12,-0.85 0.197,-1.047c0.098,-0.267 0.224,-0.45 0.422,-0.647c0.196,-0.197 0.379,-0.323 0.646,-0.421c0.197,-0.078 0.493,-0.169 1.041,-0.197c0.598,-0.022 0.774,-0.029 2.278,-0.029l0.021,0.015Zm0,1.724c-1.596,0 -2.888,1.293 -2.888,2.888c0,1.596 1.293,2.888 2.888,2.888c1.596,0 2.888,-1.293 2.888,-2.888c0,-1.596 -1.293,-2.888 -2.888,-2.888Zm0,4.763c-1.036,0 -1.875,-0.839 -1.875,-1.875c0,-1.036 0.839,-1.875 1.875,-1.875c1.036,0 1.875,0.839 1.875,1.875c0,1.036 -0.839,1.875 -1.875,1.875Zm3.678,-4.877c0,0.372 -0.303,0.675 -0.675,0.675c-0.373,0 -0.675,-0.303 -0.675,-0.675c0,-0.373 0.303,-0.675 0.675,-0.675c0.372,0 0.675,0.302 0.675,0.675Z" style="fill-rule:nonzero;"/></g></svg>