<?xml version="1.0" encoding="UTF-8" standalone="no"?><!DOCTYPE svg PUBLIC "-//W3C//DTD SVG 1.1//EN" "http://www.w3.org/Graphics/SVG/1.1/DTD/svg11.dtd"><svg width="100%" height="100%" viewBox="0 0 18 17" version="1.1" xmlns="http://www.w3.org/2000/svg" xmlns:xlink="http://www.w3.org/1999/xlink" xml:space="preserve" xmlns:serif="http://www.serif.com/" style="fill-rule:evenodd;clip-rule:evenodd;stroke-linejoin:round;stroke-miterlimit:1.41421;"><g><path d="M17.504,4.861c-0.256,-2.817 -2.25,-4.861 -4.745,-4.861c-1.663,0 -3.185,0.895 -4.041,2.329c-0.849,-1.453 -2.309,-2.329 -3.944,-2.329c-2.495,0 -4.489,2.044 -4.745,4.861c-0.02,0.124 -0.103,0.779 0.149,1.847c0.364,1.54 1.203,2.941 2.428,4.05l6.108,5.543l6.213,-5.542c1.224,-1.11 2.064,-2.511 2.427,-4.051c0.252,-1.068 0.169,-1.723 0.15,-1.847Zm-0.806,1.692c-0.332,1.407 -1.101,2.689 -2.222,3.704l-5.758,5.137l-5.659,-5.135c-1.123,-1.018 -1.892,-2.299 -2.224,-3.706c-0.239,-1.011 -0.141,-1.582 -0.14,-1.585l0.005,-0.034c0.219,-2.468 1.932,-4.26 4.074,-4.26c1.58,0 2.971,0.971 3.632,2.534l0.31,0.736l0.311,-0.736c0.649,-1.539 2.114,-2.533 3.732,-2.533c2.141,0 3.855,1.791 4.079,4.291c0,0.005 0.098,0.577 -0.14,1.587Z" style="fill-rule:nonzero;"/></g></svg>