<?xml version="1.0" encoding="UTF-8" standalone="no"?><!DOCTYPE svg PUBLIC "-//W3C//DTD SVG 1.1//EN" "http://www.w3.org/Graphics/SVG/1.1/DTD/svg11.dtd"><svg width="100%" height="100%" viewBox="0 0 12 12" version="1.1" xmlns="http://www.w3.org/2000/svg" xmlns:xlink="http://www.w3.org/1999/xlink" xml:space="preserve" xmlns:serif="http://www.serif.com/" style="fill-rule:evenodd;clip-rule:evenodd;stroke-linejoin:round;stroke-miterlimit:1.41421;"><g><path d="M11.181,10.85l-3.423,-3.423c0.711,-0.79 1.148,-1.83 1.148,-2.974c0,-2.455 -1.997,-4.453 -4.453,-4.453c-2.455,0 -4.453,1.998 -4.453,4.453c0,2.456 1.998,4.453 4.453,4.453c1.144,0 2.184,-0.437 2.974,-1.148l3.423,3.423c0.046,0.046 0.106,0.069 0.166,0.069c0.06,0 0.12,-0.023 0.165,-0.069c0.092,-0.091 0.092,-0.24 0,-0.331Zm-6.728,-2.413c-2.197,0 -3.984,-1.787 -3.984,-3.984c0,-2.197 1.787,-3.984 3.984,-3.984c2.197,0 3.984,1.787 3.984,3.984c0,2.197 -1.787,3.984 -3.984,3.984Z" style="fill-rule:nonzero;"/></g></svg>