<?xml version="1.0" encoding="UTF-8" standalone="no"?><!DOCTYPE svg PUBLIC "-//W3C//DTD SVG 1.1//EN" "http://www.w3.org/Graphics/SVG/1.1/DTD/svg11.dtd"><svg width="100%" height="100%" viewBox="0 0 15 20" version="1.1" xmlns="http://www.w3.org/2000/svg" xmlns:xlink="http://www.w3.org/1999/xlink" xml:space="preserve" xmlns:serif="http://www.serif.com/" style="fill-rule:evenodd;clip-rule:evenodd;stroke-linejoin:round;stroke-miterlimit:1.41421;"><g><path d="M14.053,19.223l-13.761,0c-0.08,0 -0.157,-0.033 -0.211,-0.091c-0.055,-0.057 -0.084,-0.135 -0.081,-0.215l0.656,-13.761c0.007,-0.156 0.135,-0.278 0.291,-0.278l12.451,0c0.155,0 0.284,0.122 0.291,0.278l0.655,13.761c0.004,0.08 -0.025,0.158 -0.08,0.215c-0.055,0.058 -0.132,0.091 -0.211,0.091Zm-13.456,-0.583l13.15,0l-0.627,-13.179l-11.896,0l-0.627,13.179Z" style="fill-rule:nonzero;"/><path d="M10.321,6.626c-0.161,0 -0.292,-0.13 -0.292,-0.291l0,-2.895c0,-1.575 -1.281,-2.857 -2.857,-2.857c-1.576,0 -2.857,1.282 -2.857,2.857l0,2.895c0,0.161 -0.131,0.291 -0.291,0.291c-0.161,0 -0.292,-0.13 -0.292,-0.291l0,-2.895c0,-1.897 1.543,-3.44 3.44,-3.44c1.897,0 3.44,1.543 3.44,3.44l0,2.895c0,0.161 -0.13,0.291 -0.291,0.291Z" style="fill-rule:nonzero;"/></g></svg>