<?xml version="1.0" encoding="UTF-8" standalone="no"?><!DOCTYPE svg PUBLIC "-//W3C//DTD SVG 1.1//EN" "http://www.w3.org/Graphics/SVG/1.1/DTD/svg11.dtd"><svg width="100%" height="100%" viewBox="0 0 13 11" version="1.1" xmlns="http://www.w3.org/2000/svg" xmlns:xlink="http://www.w3.org/1999/xlink" xml:space="preserve" xmlns:serif="http://www.serif.com/" style="fill-rule:evenodd;clip-rule:evenodd;stroke-linejoin:round;stroke-miterlimit:1.41421;"><path d="M12.582,1.22c-0.465,0.204 -0.962,0.344 -1.484,0.407c0.532,-0.321 0.942,-0.827 1.136,-1.43c-0.5,0.291 -1.053,0.504 -1.643,0.622c-0.47,-0.504 -1.141,-0.819 -1.886,-0.819c-1.427,0 -2.584,1.157 -2.584,2.583c0,0.204 0.024,0.401 0.067,0.59c-2.148,-0.101 -4.052,-1.133 -5.327,-2.692c-0.224,0.379 -0.349,0.819 -0.349,1.3c0,0.898 0.457,1.687 1.149,2.151c-0.424,-0.014 -0.823,-0.13 -1.17,-0.324l0,0.032c0,1.253 0.889,2.298 2.072,2.536c-0.217,0.058 -0.446,0.09 -0.681,0.09c-0.164,0 -0.323,-0.016 -0.481,-0.046c0.332,1.026 1.285,1.774 2.419,1.795c-0.883,0.693 -2.001,1.106 -3.205,1.106c-0.205,0 -0.41,-0.012 -0.615,-0.035c1.15,0.732 2.504,1.16 3.969,1.16c4.756,0 7.353,-3.937 7.353,-7.346c0,-0.11 0,-0.221 -0.008,-0.331c0.505,-0.362 0.946,-0.819 1.292,-1.338l-0.024,-0.011Z" style="fill-rule:nonzero;"/></svg>