<?xml version="1.0" encoding="UTF-8" standalone="no"?><!DOCTYPE svg PUBLIC "-//W3C//DTD SVG 1.1//EN" "http://www.w3.org/Graphics/SVG/1.1/DTD/svg11.dtd"><svg width="100%" height="100%" viewBox="0 0 15 11" version="1.1" xmlns="http://www.w3.org/2000/svg" xmlns:xlink="http://www.w3.org/1999/xlink" xml:space="preserve" xmlns:serif="http://www.serif.com/" style="fill-rule:evenodd;clip-rule:evenodd;stroke-linejoin:round;stroke-miterlimit:1.41421;"><path d="M14.687,1.619c-0.177,-0.633 -0.673,-1.129 -1.306,-1.306c-1.169,-0.313 -5.874,-0.313 -5.874,-0.313c0,0 -4.694,-0.006 -5.875,0.313c-0.633,0.177 -1.129,0.673 -1.305,1.306c-0.222,1.197 -0.331,2.412 -0.327,3.629c-0.004,1.213 0.106,2.423 0.327,3.616c0.176,0.633 0.672,1.129 1.305,1.305c1.168,0.314 5.875,0.314 5.875,0.314c0,0 4.693,0 5.874,-0.314c0.633,-0.176 1.129,-0.672 1.306,-1.305c0.216,-1.193 0.321,-2.403 0.312,-3.616c0.01,-1.217 -0.095,-2.432 -0.312,-3.629Zm-8.682,5.874l0,-4.497l3.916,2.252l-3.916,2.245Z" style="fill-rule:nonzero;"/></svg>